# xmcd CD database file
#
# Track frame offsets:
#	150
#	11175
#	27573
#	46617
#	77639
#	90132
#	102824
#	117487
#	139561
#
# Disc length: 2031 seconds
#
# Revision: 0
# Processed by: cddbd v1.5.1PL2 Copyright (c) Steve Scherf et al.
# Submitted via: CDex 1.51
#
DISCID=6207ed09
DTITLE=Gabor Szabo - Gypsy '66
DYEAR=1966
DGENRE=Jazz
TTITLE0=Yesterday
TTITLE1=The Last One To Be Loved
TTITLE2=The Echo Of Love
TTITLE3=Gypsy '66
TTITLE4=Flea Market
TTITLE5=Walk On By
TTITLE6=If I Fell
TTITLE7=Gypsy Jam
TTITLE8=I'm All Smiles
EXTD=YEAR: 1966
EXTT0=
EXTT1=
EXTT2=
EXTT3=
EXTT4=
EXTT5=
EXTT6=
EXTT7=
EXTT8=
PLAYORDER=
